# xmcd CD database file
#
# Track frame offsets:
#	150
#	25994
#	54418
#	91634
#	121085
#	139770
#	155018
#	179789
#	193040
#
# Disc length: 3004 seconds
#
# Revision: 0
# Processed by: cddbd v1.5.2PL0 Copyright (c) Steve Scherf et al.
# Submitted via: CDex 1.70beta2
#
DISCID=750bba09
DTITLE=Мы - Арт Деко Джазз
DYEAR=2003
DGENRE=Jazz
TTITLE0=Надя
TTITLE1=Поездка
TTITLE2=Панно
TTITLE3=Радость Камня
TTITLE4=Купальщицы Хуанхэ
TTITLE5=Сацебели
TTITLE6=Гимн
TTITLE7=Кроталь
TTITLE8=Мы
EXTD=YEAR: 2003
EXTT0=
EXTT1=
EXTT2=
EXTT3=
EXTT4=
EXTT5=
EXTT6=
EXTT7=
EXTT8=
PLAYORDER=
